<?xml version="1.0" standalone="no"?>
<!DOCTYPE svg PUBLIC "-//W3C//DTD SVG 20010904//EN"
 "http://www.w3.org/TR/2001/REC-SVG-20010904/DTD/svg10.dtd">
<svg version="1.0" xmlns="http://www.w3.org/2000/svg"
 width="920.000000pt" height="833.000000pt" viewBox="0 0 920.000000 833.000000"
 preserveAspectRatio="xMidYMid meet">

<g transform="translate(0.000000,833.000000) scale(0.100000,-0.100000)"
fill="#000000" stroke="none">
<path d="M4445 8319 c-229 -7 -335 -16 -545 -51 -1132 -184 -2000 -808 -2175
-1563 -58 -254 -40 -626 46 -885 253 -771 1061 -1321 2174 -1479 366 -52 896
-57 1260 -11 1114 141 1941 672 2220 1425 123 333 137 758 34 1067 -227 682
-1000 1225 -2029 1427 -296 58 -610 80 -985 70z m495 -119 c664 -52 1250 -239
1711 -546 54 -37 99 -70 99 -74 0 -4 -8 -10 -17 -13 -10 -3 -54 -19 -98 -36
-206 -80 -442 -118 -665 -107 -214 9 -370 48 -607 152 -280 122 -500 164 -742
142 -188 -17 -329 -65 -476 -163 -89 -60 -102 -65 -175 -74 -44 -6 -152 -29
-242 -53 -150 -39 -173 -42 -288 -42 -102 0 -146 5 -240 27 -264 64 -654 190
-648 209 6 18 219 146 353 212 421 208 906 333 1435 369 109 8 486 6 600 -3z
m11 -610 c134 -27 237 -61 383 -125 177 -77 329 -121 526 -151 25 -4 108 -6
185 -6 224 0 445 46 689 143 55 22 102 42 104 44 3 3 -1 12 -9 22 -29 36 48
-30 140 -120 237 -233 400 -523 434 -772 3 -22 3 -32 1 -22 -3 9 -9 17 -14 17
-5 0 -100 -23 -212 -51 -322 -80 -639 -185 -896 -295 l-104 -44 -136 117
c-846 733 -1027 880 -1142 924 -31 12 -89 23 -135 26 -129 8 -240 -39 -422
-179 -200 -155 -231 -177 -279 -202 -71 -37 -168 -51 -249 -36 -68 13 -125 42
-125 63 0 19 334 371 414 437 85 70 183 130 266 163 167 66 396 85 581 47z
m-2486 -15 c-16 -13 -27 -26 -24 -29 9 -9 244 -94 359 -129 317 -99 507 -139
660 -140 93 -1 124 4 269 41 90 24 165 41 167 40 1 -2 -65 -77 -148 -168 -82
-91 -157 -180 -165 -199 -20 -47 -9 -83 42 -130 72 -66 238 -104 360 -82 89
16 165 59 330 187 235 182 318 225 438 225 80 0 154 -30 255 -105 75 -56 364
-297 622 -520 562 -485 528 -452 551 -530 35 -119 -147 -237 -266 -174 -16 9
-131 107 -254 218 -184 165 -229 200 -250 198 -58 -7 -38 -35 172 -247 112
-113 211 -217 221 -231 24 -36 21 -110 -7 -151 -50 -75 -168 -117 -251 -89
-25 8 -83 56 -174 144 -169 162 -215 198 -244 194 -51 -7 -32 -39 125 -214 84
-94 157 -178 160 -188 17 -44 7 -73 -37 -114 -59 -55 -139 -76 -199 -53 -14 5
-47 31 -73 58 -27 27 -94 88 -148 136 -103 91 -138 106 -144 60 -3 -21 22 -53
182 -229 80 -87 80 -97 0 -127 -60 -23 -134 -19 -215 12 -89 34 -91 36 -73
101 18 66 11 155 -16 217 -42 96 -152 177 -257 189 l-51 6 -6 57 c-10 86 -32
143 -73 185 -76 78 -187 111 -308 92 -38 -6 -41 -4 -67 34 -55 80 -198 132
-305 111 -29 -6 -71 -20 -93 -31 l-40 -21 -39 31 c-48 39 -129 70 -181 70 -51
0 -146 -33 -176 -61 l-22 -21 -47 32 c-156 107 -523 241 -950 345 -228 55
-245 62 -245 92 0 44 69 234 120 332 65 123 146 234 250 344 93 99 269 257
285 257 6 -1 -3 -12 -20 -25z m-502 -1085 c260 -58 486 -122 672 -190 105 -38
302 -129 345 -160 29 -21 29 -21 23 -99 -4 -59 -2 -90 11 -128 36 -110 143
-186 262 -187 51 -1 64 -4 64 -17 0 -32 54 -121 97 -159 59 -51 136 -80 217
-80 61 0 64 -1 76 -30 39 -95 221 -180 323 -152 37 10 38 10 56 -27 25 -48
101 -118 154 -141 119 -53 238 -32 362 64 8 6 32 -1 68 -17 166 -79 334 -75
429 11 40 36 41 36 117 33 68 -2 82 1 138 29 70 35 148 114 158 160 6 29 8 30
65 30 153 0 299 113 319 247 6 45 8 48 34 45 42 -4 136 16 181 39 127 65 180
188 138 314 -11 33 -20 60 -19 61 48 26 409 153 622 219 173 53 515 145 539
145 12 0 6 -197 -9 -282 -47 -268 -187 -519 -420 -753 -440 -443 -1107 -723
-1945 -817 -152 -17 -687 -17 -840 1 -832 93 -1507 376 -1945 816 -275 276
-418 579 -432 918 -3 75 -3 137 1 137 3 0 66 -13 139 -30z m1414 -311 c51 -25
81 -64 98 -127 l12 -47 15 30 c21 39 53 68 105 94 72 36 200 23 255 -26 27
-23 57 -90 58 -125 0 -33 19 -36 45 -8 9 10 37 27 62 36 37 15 52 15 96 5 29
-6 69 -22 89 -36 68 -46 94 -153 63 -260 -10 -36 -13 -61 -7 -67 6 -6 31 -3
65 7 141 41 277 -49 294 -194 30 -259 -317 -353 -428 -116 -10 22 -19 55 -19
73 0 37 -23 52 -49 33 -46 -33 -104 -53 -139 -46 -101 19 -182 99 -182 179 0
19 -4 37 -8 40 -5 3 -30 -6 -57 -19 -62 -32 -108 -31 -173 1 -89 44 -139 134
-128 231 7 61 -4 73 -40 44 -35 -28 -98 -44 -137 -36 -82 17 -147 94 -147 174
0 137 133 220 257 160z"/>
<path d="M7694 3730 c-60 -12 -139 -55 -162 -87 -36 -53 -42 -91 -42 -286 l0
-190 -42 45 c-93 98 -163 127 -300 128 -153 0 -253 -38 -359 -138 -76 -71
-126 -156 -159 -272 -30 -104 -39 -361 -16 -470 45 -212 172 -345 385 -402
101 -27 307 -29 401 -5 206 54 334 179 383 372 12 46 17 146 21 420 4 198 9
480 12 628 l6 267 -44 -1 c-23 -1 -62 -5 -84 -9z m-317 -706 c128 -79 176
-303 113 -518 -37 -124 -112 -191 -225 -203 -125 -13 -220 45 -266 162 -21 54
-24 76 -24 215 0 138 3 161 23 212 27 67 96 143 144 157 18 6 68 9 110 7 65
-2 85 -7 125 -32z"/>
<path d="M450 3349 c-166 -18 -306 -115 -382 -264 -60 -118 -61 -122 -65 -592
l-4 -433 153 0 153 0 0 398 c0 361 2 401 18 444 62 161 308 186 394 41 l28
-48 3 -417 3 -418 149 0 149 0 3 408 c3 375 4 410 22 442 40 75 101 117 185
127 63 7 149 -18 183 -54 57 -60 58 -66 58 -513 l0 -410 154 0 154 0 -5 413
c-4 293 -9 432 -19 481 -49 246 -240 398 -499 399 -136 0 -246 -43 -337 -131
l-47 -45 -26 31 c-86 103 -257 160 -425 141z"/>
<path d="M2480 3349 c-144 -16 -245 -64 -340 -162 -139 -142 -201 -332 -187
-569 17 -281 130 -438 389 -543 93 -38 166 -48 296 -43 121 6 171 18 272 67
96 46 216 182 245 279 l6 22 -181 0 c-154 0 -182 -2 -187 -15 -3 -9 -29 -28
-57 -42 -45 -23 -63 -27 -156 -27 -90 -1 -112 2 -151 21 -92 46 -145 123 -156
229 l-6 54 453 0 452 -1 -1 121 c-3 193 -40 307 -138 422 -85 99 -162 146
-283 171 -92 20 -185 25 -270 16z m225 -301 c28 -14 58 -34 67 -45 28 -30 58
-105 58 -145 l0 -38 -280 0 c-173 0 -280 4 -280 10 0 29 47 128 78 162 62 69
116 89 227 84 62 -2 91 -8 130 -28z"/>
<path d="M8366 3340 c-168 -43 -279 -136 -362 -305 -55 -112 -74 -183 -81
-305 -11 -197 53 -388 177 -523 50 -54 79 -75 144 -106 106 -51 175 -65 321
-64 257 1 408 80 520 271 25 42 58 113 72 157 25 73 27 94 27 240 1 182 -11
232 -85 357 -81 138 -180 221 -317 265 -109 36 -302 42 -416 13z m281 -285
c68 -20 143 -88 174 -157 22 -49 24 -66 24 -208 -1 -137 -3 -162 -23 -212 -77
-193 -338 -238 -482 -82 -58 63 -75 129 -74 294 1 152 19 221 77 286 70 80
193 112 304 79z"/>
<path d="M5825 3335 c-153 -29 -256 -96 -313 -203 -27 -51 -61 -161 -62 -199
0 -10 37 -13 154 -13 l154 0 17 50 c21 63 59 95 132 110 61 13 171 7 207 -12
61 -31 87 -93 62 -152 -23 -55 -68 -70 -254 -86 -203 -18 -356 -71 -424 -149
-17 -19 -43 -60 -57 -91 -23 -49 -26 -67 -26 -170 0 -98 3 -122 22 -163 77
-167 247 -233 533 -208 134 12 242 40 323 83 75 41 159 131 189 205 23 57 23
65 23 403 0 329 -1 347 -21 390 -45 98 -123 152 -273 191 -103 27 -281 33
-386 14z m368 -757 c-10 -197 -69 -273 -236 -308 -124 -25 -207 32 -207 143 0
100 54 156 176 182 150 33 236 53 241 59 4 3 12 6 18 6 8 0 11 -24 8 -82z"/>
<path d="M3815 3325 c-205 -38 -340 -137 -425 -310 -62 -127 -70 -197 -70
-611 l0 -354 164 0 164 0 4 378 3 377 29 58 c49 101 124 140 268 141 l88 1 0
161 c0 138 -2 163 -16 168 -25 10 -133 5 -209 -9z"/>
<path d="M4573 3320 c-213 -39 -370 -179 -440 -395 -34 -105 -44 -338 -20
-456 42 -203 161 -346 340 -409 200 -71 466 -43 618 64 89 62 168 177 203 295
30 103 41 96 -153 93 l-170 -3 -16 -54 c-18 -64 -63 -120 -114 -141 -50 -21
-165 -20 -219 1 -105 42 -157 170 -157 385 0 119 2 128 32 192 17 36 49 84 72
107 73 73 203 91 305 41 52 -25 80 -61 98 -127 l12 -43 173 0 173 0 -6 28
c-38 171 -67 235 -138 299 -102 91 -198 122 -401 128 -77 2 -163 0 -192 -5z"/>
<path d="M2335 1696 c-27 -12 -67 -41 -87 -64 -73 -81 -68 -18 -68 -864 l0
-763 160 0 160 0 0 858 0 857 -57 0 c-40 0 -74 -8 -108 -24z"/>
<path d="M2850 1575 l0 -145 160 0 160 0 0 145 0 145 -160 0 -160 0 0 -145z"/>
<path d="M3707 1709 c-63 -15 -133 -56 -171 -101 l-37 -43 4 -565 c3 -477 6
-573 19 -617 59 -195 171 -304 364 -353 58 -15 110 -20 209 -20 213 0 339 42
446 149 115 116 162 263 162 511 0 188 -24 303 -85 423 -69 133 -173 205 -338
235 -76 13 -103 14 -161 4 -99 -17 -175 -59 -243 -133 l-56 -62 0 291 0 292
-37 -1 c-21 -1 -55 -5 -76 -10z m487 -671 c56 -17 119 -82 144 -149 67 -179
45 -416 -48 -521 -51 -58 -105 -81 -196 -81 -125 -1 -206 59 -243 178 -27 87
-34 178 -21 279 19 156 65 241 154 282 58 27 143 32 210 12z"/>
<path d="M5445 1319 c-270 -21 -447 -163 -517 -416 -20 -73 -22 -105 -26 -485
l-3 -408 165 0 165 0 3 397 c3 380 4 400 24 443 48 104 122 140 286 140 l98 0
0 171 0 170 -52 -3 c-29 -1 -93 -6 -143 -9z"/>
<path d="M6204 1315 c-160 -35 -314 -154 -393 -305 -58 -111 -81 -210 -81
-349 0 -210 50 -342 179 -471 126 -128 250 -174 461 -175 176 0 290 34 402
119 68 52 154 181 182 274 l7 22 -155 0 c-121 0 -156 -3 -156 -13 0 -24 -83
-100 -138 -125 -131 -60 -325 -14 -386 91 -26 43 -56 143 -56 184 l0 23 456 0
457 0 -6 113 c-9 196 -79 360 -199 473 -78 72 -166 120 -255 139 -84 18 -237
18 -319 0z m293 -273 c22 -12 54 -38 71 -57 30 -38 62 -119 62 -161 l0 -24
-281 0 -281 0 7 38 c18 99 86 181 177 214 71 25 185 20 245 -10z"/>
<path d="M2850 645 l0 -635 160 0 160 0 0 635 0 635 -160 0 -160 0 0 -635z"/>
</g>
</svg>
